<svg xmlns="http://www.w3.org/2000/svg" viewBox="0 0 540.94 843.61"><g id="Layer_2" data-name="Layer 2"><g id="Layer_1-2" data-name="Layer 1"><path d="M168.85,833.61A158.77,158.77,0,0,1,10,674.76V471.52A158.77,158.77,0,0,1,168.85,312.67H372.09a158,158,0,0,1,61.85,12.51,161.72,161.72,0,0,1,16.9,8.36l-.2-76.5c0-91.86-73.95-166.79-164.85-167h-.47c-81.49,0-151.81,60.75-163.58,141.3a40,40,0,0,1-79.19-11.57A245.41,245.41,0,0,1,285.32,10,245.31,245.31,0,0,1,530.64,255.32V461.91c.2,3.3.3,6.53.3,9.61V674.76A158.77,158.77,0,0,1,372.09,833.61Zm0-440.94A78.94,78.94,0,0,0,90,471.52V674.76a78.94,78.94,0,0,0,78.85,78.85H372.09a79,79,0,0,0,78.85-78.85V471.52a78.94,78.94,0,0,0-78.85-78.85Z"/><path d="M285.32,20A235.31,235.31,0,0,1,520.64,255.32v206.9c.19,3.08.3,6.18.3,9.3V674.76A148.81,148.81,0,0,1,372.09,823.61H168.85A148.78,148.78,0,0,1,20,674.76V471.52A148.77,148.77,0,0,1,168.85,322.67H372.09A148.54,148.54,0,0,1,460.88,352l-.24-95c0-96.91-77.91-176.75-174.82-177h-.5c-88,0-161.11,65.21-173.48,149.86a30,30,0,0,1-59.39-8.7A235.4,235.4,0,0,1,285.32,20M168.85,763.61H372.09a88.85,88.85,0,0,0,88.85-88.85V471.52a88.85,88.85,0,0,0-88.85-88.85H168.85A88.85,88.85,0,0,0,80,471.52V674.76a88.85,88.85,0,0,0,88.85,88.85M285.32,0A255.42,255.42,0,0,0,32.65,218.3a50,50,0,0,0,99,14.45C142.69,157.07,208.76,100,285.32,100h.44c85.4.24,154.88,70.68,154.88,157v.05l.15,60.19c-1-.44-2-.87-3-1.29a167.94,167.94,0,0,0-65.74-13.3H168.85A168.77,168.77,0,0,0,0,471.52V674.76A168.77,168.77,0,0,0,168.85,843.61H372.09A168.81,168.81,0,0,0,540.94,674.76V471.52c0-3.18-.1-6.51-.3-9.9V255.32A255.31,255.31,0,0,0,285.32,0ZM168.85,743.61A68.93,68.93,0,0,1,100,674.76V471.52a68.93,68.93,0,0,1,68.85-68.85H372.09a68.93,68.93,0,0,1,68.85,68.85V674.76a68.93,68.93,0,0,1-68.85,68.85Z"/><circle cx="273.02" cy="575.69" r="108.05"/></g></g></svg>